<svg width="36" height="36" viewBox="0 0 36 36" fill="none" xmlns="http://www.w3.org/2000/svg">
<mask id="path-1-inside-1_224_335" fill="white">
<path d="M14.3159 5C12.6074 6.78009 11.5553 9.19529 11.5552 11.8574C11.5552 17.3292 15.9916 21.7656 21.4634 21.7656C25.1324 21.7655 28.3321 19.7687 30.0444 16.8047C30.0474 16.9166 30.0493 17.0289 30.0493 17.1416C30.0493 24.0724 24.4312 29.6911 17.5005 29.6914C10.5696 29.6914 4.95068 24.0725 4.95068 17.1416C4.95081 11.311 8.92704 6.4093 14.3159 5Z"/>
</mask>
<path d="M14.3159 5L15.7589 6.3849L20.6661 1.27205L13.8099 3.06507L14.3159 5ZM11.5552 11.8574L9.55518 11.8573V11.8574H11.5552ZM21.4634 21.7656L21.4634 23.7656L21.4635 23.7656L21.4634 21.7656ZM30.0444 16.8047L32.0437 16.7519L31.8569 9.66915L28.3126 15.8042L30.0444 16.8047ZM30.0493 17.1416L32.0493 17.1416L32.0493 17.1416L30.0493 17.1416ZM17.5005 29.6914L17.5005 31.6914L17.5006 31.6914L17.5005 29.6914ZM4.95068 17.1416L2.95068 17.1416V17.1416H4.95068ZM14.3159 5L12.873 3.6151C10.8224 5.75158 9.55532 8.6572 9.55518 11.8573L11.5552 11.8574L13.5552 11.8575C13.5553 9.73338 14.3924 7.80861 15.7589 6.3849L14.3159 5ZM11.5552 11.8574H9.55518C9.55518 18.4338 14.887 23.7656 21.4634 23.7656V21.7656V19.7656C17.0962 19.7656 13.5552 16.2246 13.5552 11.8574H11.5552ZM21.4634 21.7656L21.4635 23.7656C25.8773 23.7655 29.7221 21.3608 31.7762 17.8051L30.0444 16.8047L28.3126 15.8042C26.9421 18.1766 24.3875 19.7655 21.4633 19.7656L21.4634 21.7656ZM30.0444 16.8047L28.0451 16.8574C28.0478 16.9574 28.0493 17.0514 28.0493 17.1416L30.0493 17.1416L32.0493 17.1416C32.0493 17.0065 32.047 16.8758 32.0437 16.7519L30.0444 16.8047ZM30.0493 17.1416H28.0493C28.0493 22.9679 23.3265 27.6912 17.5004 27.6914L17.5005 29.6914L17.5006 31.6914C25.5359 31.6911 32.0493 25.1768 32.0493 17.1416H30.0493ZM17.5005 29.6914V27.6914C11.6741 27.6914 6.95068 22.9679 6.95068 17.1416H4.95068H2.95068C2.95068 25.1771 9.465 31.6914 17.5005 31.6914V29.6914ZM4.95068 17.1416L6.95068 17.1416C6.95079 12.243 10.2914 8.11976 14.8219 6.93493L14.3159 5L13.8099 3.06507C7.56272 4.69883 2.95083 10.379 2.95068 17.1416L4.95068 17.1416Z" fill="white" mask="url(#path-1-inside-1_224_335)"/>
</svg>
