<svg width="36" height="36" viewBox="0 0 36 36" fill="none" xmlns="http://www.w3.org/2000/svg">
<rect x="8.5" y="29.5" width="18" height="1" rx="0.5" stroke="#F1F1F1"/>
<path d="M25 18V24C25 26.7614 22.7614 29 20 29H14C11.2386 29 9 26.7614 9 24V18H25Z" fill="#F1F1F1" stroke="#F1F1F1" stroke-width="2"/>
<path d="M26 19C27.6569 19 29 20.3431 29 22C29 23.6569 27.6569 25 26 25H21V19H26Z" stroke="#F1F1F1" stroke-width="2"/>
<path d="M14.0002 5.99976L13.1371 7.51027C12.4659 8.68488 12.6639 10.1634 13.6205 11.12L14.3822 11.8817C15.0674 12.5669 15.3067 13.5805 15.0002 14.4998V14.4998" stroke="#F1F1F1" stroke-width="2" stroke-linecap="round"/>
<path d="M20.0001 5.99976L19.137 7.51027C18.4658 8.68488 18.6638 10.1634 19.6204 11.12L20.3821 11.8817C21.0673 12.5669 21.3066 13.5805 21.0001 14.4998V14.4998" stroke="#F1F1F1" stroke-width="2" stroke-linecap="round"/>
</svg>
