<svg width="44" height="44" viewBox="0 0 44 44" fill="none" xmlns="http://www.w3.org/2000/svg">
<path d="M6.95908 34H2.73586L10.4251 12.1587H15.3095L23.0094 34H18.7862L12.9526 16.6379H12.782L6.95908 34ZM7.09772 25.4363H18.6156V28.6143H7.09772V25.4363ZM30.4294 34.3306C29.3913 34.3306 28.4564 34.1458 27.6246 33.776C26.7998 33.3992 26.1457 32.8447 25.6623 32.1124C25.1859 31.38 24.9477 30.4771 24.9477 29.4035C24.9477 28.4792 25.1184 27.7149 25.4596 27.1106C25.8009 26.5063 26.2666 26.0228 26.8567 25.6602C27.4468 25.2976 28.1116 25.0239 28.851 24.839C29.5975 24.6471 30.3689 24.5084 31.1652 24.4231C32.1251 24.3236 32.9036 24.2347 33.5008 24.1565C34.098 24.0712 34.5317 23.9432 34.8019 23.7726C35.0792 23.5948 35.2178 23.3211 35.2178 22.9514V22.8874C35.2178 22.084 34.9796 21.4619 34.5033 21.0211C34.0269 20.5803 33.3408 20.3599 32.445 20.3599C31.4994 20.3599 30.7493 20.5661 30.1948 20.9784C29.6473 21.3908 29.2776 21.8778 29.0856 22.4395L25.481 21.9276C25.7654 20.9322 26.2346 20.1004 26.8887 19.432C27.5428 18.7566 28.3427 18.2518 29.2883 17.9177C30.2339 17.5764 31.279 17.4058 32.4237 17.4058C33.2129 17.4058 33.9985 17.4982 34.7806 17.683C35.5626 17.8679 36.2772 18.1736 36.9242 18.6002C37.5712 19.0197 38.0902 19.592 38.4812 20.3172C38.8794 21.0424 39.0784 21.9489 39.0784 23.0367V34H35.3671V31.7498H35.2391C35.0045 32.2048 34.6739 32.6314 34.2473 33.0295C33.8279 33.4206 33.2982 33.7369 32.6583 33.9787C32.0255 34.2133 31.2826 34.3306 30.4294 34.3306ZM31.4319 31.4938C32.2068 31.4938 32.8787 31.3409 33.4475 31.0352C34.0163 30.7224 34.4535 30.31 34.7592 29.7981C35.0721 29.2862 35.2285 28.7281 35.2285 28.1238V26.1935C35.1076 26.293 34.9014 26.3854 34.6099 26.4707C34.3255 26.5561 34.0056 26.6307 33.6501 26.6947C33.2946 26.7587 32.9427 26.8156 32.5943 26.8653C32.2459 26.9151 31.9438 26.9578 31.6878 26.9933C31.1119 27.0715 30.5965 27.1995 30.1414 27.3772C29.6864 27.555 29.3274 27.8038 29.0643 28.1238C28.8012 28.4366 28.6697 28.8418 28.6697 29.3395C28.6697 30.0505 28.9292 30.5873 29.4482 30.9499C29.9672 31.3125 30.6285 31.4938 31.4319 31.4938Z" fill="#F1F1F1"/>
</svg>
