<svg width="36" height="36" viewBox="0 0 36 36" fill="none" xmlns="http://www.w3.org/2000/svg">
<path d="M7.27246 5H28.7275C29.3166 5 29.6984 5.00065 29.9893 5.02441C30.1989 5.04154 30.3111 5.06809 30.377 5.0918L30.4287 5.11426C30.5762 5.18942 30.7033 5.29801 30.7998 5.43066L30.8857 5.57129C30.9134 5.62567 30.9528 5.73191 30.9756 6.01074C30.9993 6.30161 31 6.68336 31 7.27246V20.7998C31 22.7765 30.9995 24.1993 30.9082 25.3164C30.8292 26.2835 30.686 26.9542 30.4521 27.498L30.3457 27.7236C29.8065 28.7819 28.9667 29.6554 27.9336 30.2344L27.7236 30.3457C27.1395 30.6433 26.4216 30.8179 25.3164 30.9082C24.1993 30.9995 22.7765 31 20.7998 31H7.27246C6.68336 31 6.30161 30.9993 6.01074 30.9756C5.80107 30.9585 5.68892 30.9319 5.62305 30.9082L5.57129 30.8857C5.42377 30.8106 5.29668 30.702 5.2002 30.5693L5.11426 30.4287C5.0866 30.3743 5.0472 30.2681 5.02441 29.9893C5.00065 29.6984 5 29.3166 5 28.7275V7.27246C5 6.68336 5.00065 6.30161 5.02441 6.01074C5.04154 5.80107 5.06809 5.68892 5.0918 5.62305L5.11426 5.57129C5.18942 5.42377 5.29801 5.29668 5.43066 5.2002L5.57129 5.11426C5.62567 5.0866 5.73191 5.0472 6.01074 5.02441C6.30161 5.00065 6.68336 5 7.27246 5Z" stroke="#2E4256" stroke-width="2"/>
<path d="M6.02148 5H19.1602C19.5304 5 19.7487 5.00056 19.9092 5.01367C20.0484 5.02507 20.0655 5.04159 20.043 5.03125C20.0882 5.0555 20.1249 5.09266 20.1494 5.1377C20.1532 5.15257 20.1614 5.19278 20.168 5.27344C20.1811 5.4339 20.1816 5.65151 20.1816 6.02148V13.1816C20.1816 14.5983 20.1812 15.6012 20.1172 16.3848C20.062 17.0598 19.9635 17.5048 19.8135 17.8535L19.7461 17.998C19.4105 18.6566 18.9 19.2075 18.2734 19.5918L17.998 19.7461C17.6278 19.9347 17.1565 20.0541 16.3848 20.1172C15.6012 20.1812 14.5983 20.1816 13.1816 20.1816H6.02148C5.65151 20.1816 5.4339 20.1811 5.27344 20.168C5.19278 20.1614 5.15257 20.1532 5.1377 20.1494C5.09266 20.1249 5.0555 20.0882 5.03125 20.043C5.04159 20.0655 5.02507 20.0484 5.01367 19.9092C5.00056 19.7487 5 19.5304 5 19.1602V6.02148C5 5.65152 5.00059 5.4339 5.01367 5.27344C5.02491 5.13591 5.0407 5.1166 5.03125 5.1377C5.05559 5.09274 5.09274 5.05559 5.1377 5.03125C5.1166 5.0407 5.13591 5.02491 5.27344 5.01367C5.4339 5.00059 5.65152 5 6.02148 5Z" stroke="#2E4256" stroke-width="2"/>
<path d="M12.999 5C12.9992 5.04568 13 5.09682 13 5.15527V9.2002C13 10.0566 12.9997 10.6388 12.9629 11.0889C12.936 11.4175 12.8924 11.6258 12.8389 11.7754L12.7822 11.9082C12.6145 12.2374 12.3592 12.5129 12.0459 12.7051L11.9082 12.7822C11.7518 12.8619 11.5273 12.9271 11.0889 12.9629C10.6388 12.9997 10.0566 13 9.2002 13H5.15527C5.09682 13 5.04568 12.9992 5 12.999V5H12.999Z" stroke="#2E4256" stroke-width="2"/>
</svg>
