<svg width="36" height="36" viewBox="0 0 36 36" fill="none" xmlns="http://www.w3.org/2000/svg">
<rect x="2.5" y="2.5" width="31" height="31" rx="4.5" stroke="#F1F1F1"/>
<path d="M27.0005 6.00049C28.6571 6.00075 30.0005 7.3438 30.0005 9.00049V27.0005C30.0002 28.657 28.657 30.0002 27.0005 30.0005H9.00049C7.3438 30.0005 5.99978 28.6571 5.99951 27.0005V9.00049C5.99951 7.34363 7.34363 6.00049 9.00049 6.00049H27.0005ZM18.0063 10.2837C16.5904 10.2838 15.3159 10.5909 14.1831 11.2065C13.0502 11.8173 12.1535 12.7066 11.4927 13.8735C10.8319 15.0403 10.5015 16.4554 10.5015 18.1187C10.5015 19.7771 10.8268 21.1901 11.4771 22.3569C12.1326 23.5238 13.0243 24.415 14.1519 25.0308C15.2846 25.6464 16.5695 25.9545 18.0063 25.9546C19.0395 25.9546 19.9655 25.8081 20.7837 25.5151C21.607 25.2173 22.3151 24.8154 22.9077 24.3091C23.5056 23.7976 23.9801 23.2183 24.3315 22.5728C24.6881 21.9224 24.9113 21.2474 25.0005 20.5474L21.5552 20.5327C21.4765 20.9396 21.3348 21.302 21.1304 21.6196C20.9311 21.9374 20.6787 22.2087 20.3745 22.4321C20.0704 22.6505 19.7218 22.817 19.3286 22.9312C18.9406 23.0453 18.5182 23.102 18.062 23.1021C17.2492 23.1021 16.5334 22.913 15.9146 22.5356C15.2957 22.1583 14.8125 21.5997 14.4663 20.8599C14.1255 20.12 13.9556 19.206 13.9556 18.1187C13.9556 17.0612 14.1254 16.1621 14.4663 15.4224C14.8072 14.6777 15.287 14.1114 15.9058 13.7241C16.5246 13.3318 17.2515 13.1362 18.0854 13.1362C18.547 13.1362 18.9743 13.1986 19.3677 13.3228C19.7663 13.4469 20.1182 13.6255 20.4224 13.8589C20.7264 14.0922 20.9755 14.375 21.1694 14.7075C21.3635 15.0352 21.4922 15.4104 21.5552 15.8325H25.0005C24.8904 14.9488 24.6389 14.1642 24.2456 13.479C23.8575 12.7938 23.3537 12.2154 22.7349 11.7437C22.116 11.267 21.4054 10.904 20.603 10.6558C19.8058 10.4075 18.9399 10.2837 18.0063 10.2837Z" fill="#F1F1F1"/>
</svg>
