<svg width="28" height="28" viewBox="0 0 28 28" fill="none" xmlns="http://www.w3.org/2000/svg">
<path fill-rule="evenodd" clip-rule="evenodd" d="M25 3H14V6.83448C12.6877 6.83547 11.5064 7.13741 10.4562 7.74031C9.40424 8.33934 8.57144 9.21109 7.95781 10.3556C7.34417 11.5001 7.03735 12.888 7.03735 14.5195C7.03735 16.1462 7.3393 17.5317 7.9432 18.6762C8.55196 19.8207 9.37989 20.6949 10.427 21.2988C11.4772 21.9017 12.6682 22.2036 14 22.2046V25H25V3ZM14 19.4064C14.0192 19.4066 14.0384 19.4067 14.0576 19.4067C14.4813 19.4067 14.8734 19.3507 15.2338 19.2387C15.599 19.1267 15.9229 18.9635 16.2054 18.7492C16.4878 18.5301 16.7216 18.2647 16.9067 17.953C17.0966 17.6413 17.2281 17.2858 17.3011 16.8864L20.5008 16.901C20.418 17.5877 20.211 18.2501 19.8799 18.888C19.5536 19.5212 19.1128 20.0885 18.5576 20.5902C18.0073 21.0869 17.3498 21.4814 16.5852 21.7736C15.8255 22.0609 14.9659 22.2046 14.0065 22.2046L14 22.2046V19.4064ZM14 9.63305C14.0264 9.63259 14.0529 9.63236 14.0795 9.63236C14.5081 9.63236 14.905 9.69324 15.2703 9.81499C15.6404 9.93674 15.9667 10.1121 16.2492 10.341C16.5317 10.5699 16.763 10.8475 16.9432 11.1738C17.1234 11.4952 17.2427 11.8629 17.3011 12.2768H20.5008C20.3985 11.41 20.1648 10.6405 19.7995 9.9684C19.4391 9.29632 18.9716 8.72895 18.3969 8.26629C17.8222 7.79876 17.1623 7.44324 16.4172 7.19973C15.6769 6.95623 14.8734 6.83447 14.0065 6.83447L14 6.83448V9.63305ZM14 9.63305C13.2589 9.64582 12.6109 9.83797 12.056 10.2095C11.4813 10.5893 11.0357 11.1445 10.7192 11.8751C10.4026 12.6007 10.2443 13.4822 10.2443 14.5195C10.2443 15.5861 10.4026 16.4822 10.7192 17.2078C11.0406 17.9335 11.4887 18.4814 12.0633 18.8515C12.6233 19.2122 13.2689 19.3971 14 19.4064V9.63305Z" fill="#C2C2C2"/>
<path fill-rule="evenodd" clip-rule="evenodd" d="M5 0C2.23858 0 0 2.23858 0 5V23C0 25.7614 2.23858 28 5 28H23C25.7614 28 28 25.7614 28 23V5C28 2.23858 25.7614 0 23 0H5ZM23 1H5C2.79086 1 1 2.79086 1 5V23C1 25.2091 2.79086 27 5 27H23C25.2091 27 27 25.2091 27 23V5C27 2.79086 25.2091 1 23 1Z" fill="#C2C2C2"/>
</svg>
