<svg width="44" height="44" viewBox="0 0 44 44" fill="none" xmlns="http://www.w3.org/2000/svg">
<path d="M9 6.5H35C35.7248 6.5 36.1782 6.50117 36.5198 6.52908C36.844 6.55556 36.9333 6.59845 36.954 6.60899C37.1422 6.70487 37.2951 6.85785 37.391 7.04601C37.4015 7.0667 37.4444 7.15603 37.4709 7.48015C37.4988 7.82178 37.5 8.27518 37.5 9V26.2C37.5 28.465 37.4988 30.0735 37.396 31.3322C37.2946 32.5735 37.1018 33.342 36.7915 33.9509C36.1684 35.174 35.174 36.1684 33.9509 36.7915C33.342 37.1018 32.5735 37.2946 31.3322 37.396C30.0735 37.4988 28.465 37.5 26.2 37.5H9C8.27518 37.5 7.82178 37.4988 7.48015 37.4709C7.15603 37.4444 7.0667 37.4015 7.04601 37.391C6.85785 37.2951 6.70487 37.1422 6.60899 36.954C6.59845 36.9333 6.55556 36.844 6.52908 36.5198C6.50117 36.1782 6.5 35.7248 6.5 35V9C6.5 8.27518 6.50117 7.82178 6.52908 7.48015C6.55556 7.15603 6.59845 7.0667 6.60899 7.04601C6.70487 6.85785 6.85785 6.70487 7.04601 6.60899C7.0667 6.59845 7.15603 6.55556 7.48015 6.52908C7.82178 6.50117 8.27518 6.5 9 6.5Z" stroke="#F1F1F1" stroke-width="3"/>
<path d="M7.47059 6.5H23.5294C23.9866 6.5 24.2392 6.50117 24.4214 6.51606C24.4439 6.51789 24.4628 6.51979 24.4784 6.52159C24.4802 6.53722 24.4821 6.55609 24.4839 6.57856C24.4988 6.7608 24.5 7.01344 24.5 7.47059V18.0941C24.5 19.5025 24.4988 20.4686 24.4377 21.2173C24.3779 21.9485 24.2685 22.3393 24.1249 22.6211C23.795 23.2686 23.2686 23.795 22.6211 24.1249C22.3393 24.2685 21.9485 24.3779 21.2173 24.4377C20.4686 24.4988 19.5025 24.5 18.0941 24.5H7.47059C7.01344 24.5 6.7608 24.4988 6.57856 24.4839C6.55609 24.4821 6.53723 24.4802 6.5216 24.4784C6.51979 24.4628 6.51789 24.4439 6.51606 24.4214C6.50117 24.2392 6.5 23.9866 6.5 23.5294V7.47059C6.5 7.01344 6.50117 6.7608 6.51606 6.57856C6.51789 6.55609 6.51979 6.53722 6.5216 6.5216C6.53722 6.51979 6.55609 6.51789 6.57856 6.51606C6.7608 6.50117 7.01344 6.5 7.47059 6.5ZM6.52409 24.4952C6.52393 24.4951 6.52377 24.495 6.52362 24.4949C6.52377 24.495 6.52393 24.4951 6.52409 24.4952Z" stroke="#F1F1F1" stroke-width="3"/>
<path d="M6.5 15.5V6.5H15.5V12.4824C15.5 13.2978 15.4988 13.8191 15.4665 14.2147C15.4356 14.5928 15.3839 14.722 15.3557 14.7773C15.2289 15.0264 15.0264 15.2289 14.7773 15.3557C14.722 15.3839 14.5928 15.4356 14.2147 15.4665C13.8191 15.4988 13.2978 15.5 12.4824 15.5H6.5ZM16.0597 6.50848C16.0596 6.5085 16.0584 6.50836 16.056 6.50801C16.0585 6.50828 16.0597 6.50846 16.0597 6.50848ZM15.492 5.94398C15.4916 5.94161 15.4915 5.94035 15.4915 5.94032C15.4915 5.94029 15.4917 5.94147 15.492 5.94398ZM5.94032 15.4915C5.94035 15.4915 5.94161 15.4916 5.94399 15.492C5.94148 15.4917 5.94029 15.4915 5.94032 15.4915ZM6.50801 16.056C6.50836 16.0584 6.5085 16.0596 6.50848 16.0597C6.50846 16.0597 6.50829 16.0585 6.50801 16.056ZM6.50801 5.94399C6.50828 5.94148 6.50846 5.94029 6.50848 5.94032C6.5085 5.94035 6.50836 5.94161 6.50801 5.94399ZM5.94032 6.50848C5.94029 6.50846 5.94148 6.50828 5.94399 6.50801C5.94161 6.50836 5.94035 6.5085 5.94032 6.50848Z" stroke="#F1F1F1" stroke-width="3"/>
</svg>
