<svg width="36" height="36" viewBox="0 0 36 36" fill="none" xmlns="http://www.w3.org/2000/svg">
<path d="M6.05743 28H2.60207L8.89326 10.1299H12.8896L19.1895 28H15.7342L10.9612 13.7946H10.8216L6.05743 28ZM6.17086 20.9933H15.5946V23.5935H6.17086V20.9933ZM25.2604 28.2705C24.4111 28.2705 23.6462 28.1193 22.9656 27.8168C22.2908 27.5085 21.7556 27.0547 21.36 26.4556C20.9703 25.8564 20.7754 25.1176 20.7754 24.2392C20.7754 23.483 20.915 22.8577 21.1942 22.3632C21.4735 21.8688 21.8545 21.4732 22.3373 21.1765C22.8201 20.8799 23.364 20.6559 23.969 20.5047C24.5798 20.3476 25.211 20.2342 25.8625 20.1644C26.6478 20.0829 27.2847 20.0102 27.7734 19.9462C28.262 19.8764 28.6169 19.7717 28.8379 19.6321C29.0648 19.4867 29.1782 19.2627 29.1782 18.9602V18.9079C29.1782 18.2505 28.9833 17.7415 28.5936 17.3809C28.2039 17.0202 27.6425 16.8399 26.9095 16.8399C26.1359 16.8399 25.5222 17.0086 25.0684 17.346C24.6205 17.6834 24.318 18.0818 24.161 18.5414L21.2117 18.1226C21.4444 17.3082 21.8283 16.6276 22.3635 16.0808C22.8987 15.5281 23.5531 15.1151 24.3268 14.8417C25.1004 14.5625 25.9555 14.4229 26.8921 14.4229C27.5378 14.4229 28.1806 14.4985 28.8205 14.6498C29.4603 14.801 30.045 15.0511 30.5743 15.4002C31.1037 15.7434 31.5283 16.2116 31.8483 16.805C32.174 17.3983 32.3369 18.14 32.3369 19.03V28H29.3004V26.1589H29.1957C29.0037 26.5312 28.7332 26.8802 28.3842 27.206C28.041 27.5259 27.6076 27.7848 27.0841 27.9825C26.5663 28.1745 25.9585 28.2705 25.2604 28.2705ZM26.0806 25.9495C26.7147 25.9495 27.2644 25.8244 27.7298 25.5743C28.1951 25.3183 28.5529 24.9809 28.803 24.5621C29.059 24.1433 29.1869 23.6866 29.1869 23.1922V21.6128C29.0881 21.6943 28.9194 21.7699 28.6809 21.8397C28.4482 21.9095 28.1864 21.9706 27.8955 22.0229C27.6047 22.0753 27.3167 22.1218 27.0317 22.1625C26.7467 22.2033 26.4994 22.2382 26.29 22.2672C25.8188 22.3312 25.3971 22.4359 25.0248 22.5814C24.6525 22.7268 24.3587 22.9304 24.1435 23.1922C23.9283 23.4481 23.8207 23.7797 23.8207 24.1869C23.8207 24.7686 24.033 25.2078 24.4576 25.5045C24.8823 25.8011 25.4233 25.9495 26.0806 25.9495Z" fill="#F1F1F1"/>
</svg>
