<svg width="36" height="36" viewBox="0 0 36 36" fill="none" xmlns="http://www.w3.org/2000/svg">
<path d="M26 5V6.99902L25.7715 6.82812L25.6621 6.75293C25.4007 6.58808 25.097 6.50008 24.7861 6.5H11.2139C10.903 6.50008 10.5993 6.58808 10.3379 6.75293L10.2285 6.82812L10 6.99902V5H26Z" fill="#F1F1F1" stroke="#F1F1F1" stroke-width="2"/>
<mask id="path-2-inside-1_189_255" fill="white">
<rect x="15.5454" y="6.54541" width="4.90909" height="18.8182" rx="0.642857"/>
</mask>
<rect x="15.5454" y="6.54541" width="4.90909" height="18.8182" rx="0.642857" fill="#F1F1F1" stroke="#F1F1F1" stroke-width="4.90909" mask="url(#path-2-inside-1_189_255)"/>
<rect x="6.54565" y="25.0908" width="3.27273" height="0.818182" fill="#F1F1F1"/>
<rect x="11.4548" y="25.0908" width="3.27273" height="0.818182" fill="#F1F1F1"/>
<path d="M16.364 25.0908H19.6367V25.909H16.364V25.0908Z" fill="#F1F1F1"/>
<rect x="21.2729" y="25.0908" width="3.27273" height="0.818182" fill="#F1F1F1"/>
<rect x="26.1819" y="25.0908" width="3.27273" height="0.818182" fill="#F1F1F1"/>
<rect x="6.54565" y="31.0908" width="3.27273" height="0.818182" fill="#F1F1F1"/>
<rect x="11.4548" y="31.0908" width="3.27273" height="0.818182" fill="#F1F1F1"/>
<path d="M16.364 31.0908H19.6367V31.909H16.364V31.0908Z" fill="#F1F1F1"/>
<rect x="21.2729" y="31.0908" width="3.27273" height="0.818182" fill="#F1F1F1"/>
<rect x="26.1819" y="31.0908" width="3.27273" height="0.818182" fill="#F1F1F1"/>
</svg>
