<svg width="36" height="36" viewBox="0 0 36 36" fill="none" xmlns="http://www.w3.org/2000/svg">
<path d="M9 7.5C9 5.01472 11.0147 3 13.5 3H18V12H13.5C11.0147 12 9 9.98528 9 7.5V7.5Z" stroke="#F1F1F1" stroke-width="2"/>
<path d="M27 7.5C27 5.01472 24.9853 3 22.5 3H18V12H22.5C24.9853 12 27 9.98528 27 7.5V7.5Z" stroke="#F1F1F1" stroke-width="2"/>
<path d="M9 16.5C9 14.0147 11.0147 12 13.5 12H18V21H13.5C11.0147 21 9 18.9853 9 16.5V16.5Z" stroke="#F1F1F1" stroke-width="2"/>
<path d="M9 25.5C9 23.0147 11.0147 21 13.5 21H18V25.5C18 27.9853 15.9853 30 13.5 30V30C11.0147 30 9 27.9853 9 25.5V25.5Z" stroke="#F1F1F1" stroke-width="2"/>
<path d="M27 16.5C27 14.0147 24.9853 12 22.5 12V12C20.0147 12 18 14.0147 18 16.5V16.5C18 18.9853 20.0147 21 22.5 21V21C24.9853 21 27 18.9853 27 16.5V16.5Z" stroke="#F1F1F1" stroke-width="2"/>
</svg>
