<svg width="36" height="36" viewBox="0 0 36 36" fill="none" xmlns="http://www.w3.org/2000/svg">
<path d="M6.79937 24.6026L7.96366 24.9907L8.14056 24.46L7.85602 23.9784L6.79937 24.6026ZM4.53328 31.4009L5.69758 31.789L5.69758 31.7889L4.53328 31.4009ZM4.65748 31.525L4.26938 30.3607L4.26937 30.3608L4.65748 31.525ZM11.4821 29.2502L12.0983 28.1888L11.6194 27.9107L11.094 28.0859L11.4821 29.2502ZM31.0001 17.9998H29.7728C29.7728 24.5017 24.502 29.7725 18.0001 29.7725V30.9998V32.227C25.8576 32.227 32.2274 25.8573 32.2274 17.9998H31.0001ZM18.0001 4.99976V6.22703C24.502 6.22703 29.7728 11.4979 29.7728 17.9998H31.0001H32.2274C32.2274 10.1422 25.8576 3.77248 18.0001 3.77248V4.99976ZM5.00008 17.9998H6.22735C6.22735 11.4979 11.4982 6.22703 18.0001 6.22703V4.99976V3.77248C10.1426 3.77248 3.77281 10.1423 3.77281 17.9998H5.00008ZM6.79937 24.6026L7.85602 23.9784C6.82139 22.227 6.22735 20.1846 6.22735 17.9998H5.00008H3.77281C3.77281 20.6358 4.49083 23.1078 5.74272 25.2268L6.79937 24.6026ZM4.53328 31.4009L5.69758 31.7889L7.96366 24.9907L6.79937 24.6026L5.63508 24.2145L3.36899 31.0128L4.53328 31.4009ZM4.65748 31.525L4.26937 30.3608C5.15206 30.0665 5.9918 30.9063 5.69758 31.789L4.53328 31.4009L3.36899 31.0127C3.0236 32.0489 4.00938 33.0347 5.04558 32.6893L4.65748 31.525ZM11.4821 29.2502L11.094 28.0859L4.26938 30.3607L4.65748 31.525L5.04557 32.6893L11.8702 30.4145L11.4821 29.2502ZM18.0001 30.9998V29.7725C15.847 29.7725 13.8324 29.1956 12.0983 28.1888L11.4821 29.2502L10.8659 30.3115C12.9642 31.5298 15.4026 32.227 18.0001 32.227V30.9998Z" fill="#F1F1F1"/>
<path d="M16.322 21.2709V21.014C16.3271 20.1327 16.4051 19.4302 16.5562 18.9064C16.7123 18.3826 16.9389 17.9596 17.2361 17.6373C17.5332 17.315 17.8908 17.0229 18.3088 16.761C18.621 16.5596 18.9005 16.3506 19.1473 16.134C19.3941 15.9174 19.5905 15.6782 19.7365 15.4163C19.8826 15.1494 19.9556 14.8523 19.9556 14.5249C19.9556 14.1775 19.8725 13.8728 19.7063 13.6109C19.5401 13.349 19.316 13.1476 19.034 13.0065C18.757 12.8655 18.4498 12.795 18.1124 12.795C17.785 12.795 17.4753 12.868 17.1832 13.0141C16.8911 13.1551 16.6519 13.3666 16.4656 13.6487C16.2792 13.9256 16.1785 14.2706 16.1634 14.6836H13.0813C13.1064 13.6764 13.3482 12.8454 13.8065 12.1907C14.2647 11.531 14.8716 11.0399 15.627 10.7176C16.3825 10.3903 17.2159 10.2266 18.1275 10.2266C19.1297 10.2266 20.016 10.3928 20.7866 10.7252C21.5571 11.0525 22.1614 11.5284 22.5996 12.1529C23.0377 12.7774 23.2568 13.5303 23.2568 14.4116C23.2568 15.0009 23.1586 15.5246 22.9622 15.9829C22.7708 16.4362 22.5014 16.8391 22.1539 17.1916C21.8064 17.5391 21.3959 17.8538 20.9225 18.1359C20.5247 18.3726 20.1973 18.6193 19.9405 18.8762C19.6887 19.133 19.4998 19.4302 19.3739 19.7676C19.2531 20.105 19.1901 20.5205 19.1851 21.014V21.2709H16.322ZM17.8178 26.1056C17.3141 26.1056 16.8836 25.9293 16.526 25.5768C16.1735 25.2192 15.9997 24.7912 16.0047 24.2926C15.9997 23.799 16.1735 23.376 16.526 23.0235C16.8836 22.6709 17.3141 22.4947 17.8178 22.4947C18.2962 22.4947 18.7167 22.6709 19.0793 23.0235C19.4419 23.376 19.6257 23.799 19.6308 24.2926C19.6257 24.625 19.5376 24.9296 19.3664 25.2066C19.2002 25.4786 18.9811 25.6977 18.7092 25.8639C18.4372 26.025 18.1401 26.1056 17.8178 26.1056Z" fill="#F1F1F1"/>
</svg>
