<svg width="44" height="44" viewBox="0 0 44 44" fill="none" xmlns="http://www.w3.org/2000/svg">
<rect x="4" y="4" width="36" height="36" rx="5.11111" stroke="#F1F1F1" stroke-width="2"/>
<path fill-rule="evenodd" clip-rule="evenodd" d="M11 8C9.34315 8 8 9.34315 8 11V33C8 34.6569 9.34315 36 11 36H33C34.6569 36 36 34.6569 36 33V11C36 9.34315 34.6569 8 33 8H11ZM26.345 19.3506H30.5565C30.4219 18.2704 30.1142 17.3115 29.6335 16.4739C29.1591 15.6364 28.5437 14.9294 27.7873 14.3528C27.0309 13.7702 26.1623 13.3271 25.1815 13.0237C24.2072 12.7202 23.1495 12.5685 22.0085 12.5685C20.2777 12.5685 18.72 12.9448 17.3354 13.6973C15.9508 14.4438 14.8546 15.5302 14.0469 16.9564C13.2392 18.3826 12.8354 20.1123 12.8354 22.1454C12.8354 24.1725 13.2328 25.8991 14.0277 27.3253C14.829 28.7516 15.9187 29.841 17.2969 30.5935C18.6815 31.3461 20.252 31.7224 22.0085 31.7224C23.2713 31.7224 24.4027 31.5433 25.4027 31.1852C26.4091 30.8211 27.2745 30.3295 27.9988 29.7105C28.7296 29.0854 29.3097 28.3783 29.7392 27.5893C30.1751 26.7943 30.4476 25.9689 30.5565 25.1132L26.345 25.095C26.2488 25.5926 26.0758 26.0357 25.8258 26.4241C25.5822 26.8125 25.2745 27.1433 24.9027 27.4164C24.5309 27.6834 24.1046 27.8867 23.6238 28.0263C23.1495 28.1659 22.6334 28.2357 22.0758 28.2357C21.0822 28.2357 20.2072 28.0051 19.4508 27.5438C18.6943 27.0826 18.1046 26.3998 17.6815 25.4955C17.2649 24.5913 17.0565 23.4746 17.0565 22.1454C17.0565 20.8527 17.2649 19.7542 17.6815 18.85C18.0982 17.9396 18.6847 17.2477 19.4411 16.7743C20.1976 16.2949 21.0854 16.0552 22.1046 16.0552C22.6687 16.0552 23.1911 16.131 23.6719 16.2828C24.1591 16.4345 24.5886 16.653 24.9604 16.9382C25.3322 17.2235 25.6367 17.5694 25.8738 17.976C26.111 18.3766 26.2681 18.8348 26.345 19.3506Z" fill="#F1F1F1"/>
</svg>
