<svg width="44" height="44" viewBox="0 0 44 44" fill="none" xmlns="http://www.w3.org/2000/svg">
<rect x="9.75" y="36.75" width="22.5" height="1.5" rx="0.75" stroke="#F1F1F1" stroke-width="1.5"/>
<path d="M11.2222 22.2222H30.7778L30.7778 29.6667C30.7778 33.0417 28.0417 35.7778 24.6667 35.7778H17.3333C13.9583 35.7778 11.2222 33.0417 11.2222 29.6667L11.2222 22.2222Z" fill="#F1F1F1" stroke="#F1F1F1" stroke-width="2.44444"/>
<path d="M25.2222 23.2222H32.1111C34.1362 23.2222 35.7778 24.8638 35.7778 26.8889V27.1111C35.7778 29.1362 34.1362 30.7778 32.1111 30.7778H25.2222V23.2222Z" stroke="#F1F1F1" stroke-width="2.44444"/>
<path d="M17.1112 7.33325L16.0562 9.17944C15.2359 10.6151 15.4779 12.4222 16.6471 13.5913L17.578 14.5223C18.4155 15.3598 18.7079 16.5986 18.3334 17.7221V17.7221" stroke="#F1F1F1" stroke-width="2.44444" stroke-linecap="round"/>
<path d="M24.4444 7.33325L23.3895 9.17944C22.5691 10.6151 22.8111 12.4222 23.9803 13.5913L24.9113 14.5223C25.7488 15.3598 26.0412 16.5986 25.6667 17.7221V17.7221" stroke="#F1F1F1" stroke-width="2.44444" stroke-linecap="round"/>
</svg>
