<svg width="36" height="36" viewBox="0 0 36 36" fill="none" xmlns="http://www.w3.org/2000/svg">
<rect x="2.5" y="2.5" width="31" height="31" rx="4.5" stroke="#F1F1F1"/>
<path d="M28.0004 6.00049C29.1047 6.00075 30.0004 6.89608 30.0004 8.00049V28.0005C30.0001 29.1047 29.1045 30.0002 28.0004 30.0005H7.99939C6.89521 30.0002 6.00063 29.1047 6.00037 28.0005V7.99951C6.00063 6.89517 6.89596 6.00049 8.00037 6.00049H28.0004ZM18.0062 10.2837C16.5903 10.2838 15.3157 10.5909 14.183 11.2065C13.0501 11.8173 12.1534 12.7066 11.4926 13.8735C10.8318 15.0403 10.5014 16.4554 10.5013 18.1187C10.5013 19.7771 10.8267 21.1901 11.4769 22.3569C12.1325 23.5238 13.0242 24.415 14.1517 25.0308C15.2845 25.6464 16.5693 25.9545 18.0062 25.9546C19.0394 25.9546 19.9654 25.8081 20.7836 25.5151C21.6068 25.2173 22.315 24.8154 22.9076 24.3091C23.5055 23.7976 23.98 23.2183 24.3314 22.5728C24.688 21.9224 24.9112 21.2474 25.0004 20.5474L21.5551 20.5327C21.4764 20.9396 21.3346 21.302 21.1302 21.6196C20.9309 21.9374 20.6786 22.2087 20.3744 22.4321C20.0703 22.6505 19.7217 22.817 19.3285 22.9312C18.9404 23.0453 18.5181 23.102 18.0619 23.1021C17.249 23.1021 16.5333 22.913 15.9144 22.5356C15.2955 22.1583 14.8123 21.5997 14.4662 20.8599C14.1254 20.12 13.9554 19.206 13.9554 18.1187C13.9555 17.0612 14.1253 16.1621 14.4662 15.4224C14.8071 14.6777 15.2869 14.1114 15.9056 13.7241C16.5245 13.3318 17.2514 13.1362 18.0853 13.1362C18.5469 13.1362 18.9742 13.1986 19.3676 13.3228C19.7661 13.4469 20.1181 13.6255 20.4222 13.8589C20.7262 14.0922 20.9753 14.375 21.1693 14.7075C21.3634 15.0352 21.4921 15.4104 21.5551 15.8325H25.0004C24.8902 14.9488 24.6388 14.1642 24.2455 13.479C23.8574 12.7938 23.3536 12.2154 22.7347 11.7437C22.1159 11.267 21.4053 10.904 20.6029 10.6558C19.8057 10.4075 18.9398 10.2837 18.0062 10.2837Z" fill="#F1F1F1"/>
</svg>
