<svg width="44" height="44" viewBox="0 0 44 44" fill="none" xmlns="http://www.w3.org/2000/svg">
<path d="M8.30996 30.0697L9.73298 30.544L9.94919 29.8954L9.60145 29.3068L8.30996 30.0697ZM5.54022 38.3789L4.11719 37.9046L4.11719 37.9046L5.54022 38.3789ZM5.69201 38.5307L6.16633 39.9537L6.16635 39.9537L5.69201 38.5307ZM14.0332 35.7503L14.7864 34.4531L14.2011 34.1132L13.5589 34.3273L14.0332 35.7503ZM36.3889 22C36.3889 29.9467 29.9467 36.3889 22 36.3889V39.3889C31.6036 39.3889 39.3889 31.6036 39.3889 22H36.3889ZM22 7.61108C29.9467 7.61108 36.3889 14.0532 36.3889 22H39.3889C39.3889 12.3964 31.6036 4.61108 22 4.61108V7.61108ZM7.61107 22C7.61107 14.0532 14.0532 7.61108 22 7.61108V4.61108C12.3963 4.61108 4.61107 12.3964 4.61107 22H7.61107ZM9.60145 29.3068C8.33704 27.1664 7.61107 24.6702 7.61107 22H4.61107C4.61107 25.2216 5.48855 28.2428 7.01847 30.8326L9.60145 29.3068ZM6.96324 38.8533L9.73298 30.544L6.88693 29.5954L4.11719 37.9046L6.96324 38.8533ZM5.21768 37.1077C6.29649 36.7481 7.32285 37.7744 6.96324 38.8533L4.11719 37.9046C3.69504 39.171 4.8999 40.3759 6.16633 39.9537L5.21768 37.1077ZM13.5589 34.3273L5.21767 37.1077L6.16635 39.9537L14.5076 37.1733L13.5589 34.3273ZM22 36.3889C19.3683 36.3889 16.9059 35.6837 14.7864 34.4531L13.28 37.0475C15.8447 38.5366 18.8251 39.3889 22 39.3889V36.3889Z" fill="#F1F1F1"/>
<path d="M19.9489 25.331V25.017C19.955 23.9399 20.0504 23.0812 20.2351 22.4411C20.4259 21.8009 20.7029 21.2839 21.0661 20.8899C21.4292 20.496 21.8662 20.139 22.3771 19.8189C22.7588 19.5727 23.1004 19.3172 23.402 19.0526C23.7036 18.7879 23.9437 18.4955 24.1222 18.1754C24.3007 17.8492 24.3899 17.486 24.3899 17.0859C24.3899 16.6612 24.2884 16.2888 24.0852 15.9688C23.8821 15.6487 23.6082 15.4025 23.2635 15.2301C22.925 15.0578 22.5495 14.9716 22.1371 14.9716C21.737 14.9716 21.3584 15.0608 21.0014 15.2393C20.6444 15.4117 20.352 15.6702 20.1243 16.0149C19.8965 16.3535 19.7734 16.7751 19.755 17.2798H15.9879C16.0187 16.0488 16.3142 15.0331 16.8743 14.233C17.4344 13.4266 18.1761 12.8265 19.0994 12.4325C20.0227 12.0324 21.0414 11.8324 22.1555 11.8324C23.3804 11.8324 24.4638 12.0355 25.4055 12.4418C26.3473 12.8419 27.0859 13.4235 27.6214 14.1868C28.157 14.95 28.4247 15.8703 28.4247 16.9474C28.4247 17.6676 28.3047 18.3078 28.0646 18.8679C27.8307 19.4219 27.5014 19.9143 27.0767 20.3452C26.652 20.7699 26.1503 21.1546 25.5717 21.4993C25.0855 21.7886 24.6854 22.0902 24.3714 22.4041C24.0637 22.718 23.8329 23.0812 23.679 23.4936C23.5313 23.906 23.4543 24.4138 23.4482 25.017V25.331H19.9489ZM21.777 31.2401C21.1615 31.2401 20.6352 31.0246 20.1982 30.5938C19.7673 30.1567 19.5549 29.6335 19.5611 29.0241C19.5549 28.4209 19.7673 27.9039 20.1982 27.473C20.6352 27.0421 21.1615 26.8267 21.777 26.8267C22.3617 26.8267 22.8757 27.0421 23.3189 27.473C23.7621 27.9039 23.9867 28.4209 23.9929 29.0241C23.9867 29.4304 23.879 29.8028 23.6697 30.1413C23.4666 30.4737 23.1989 30.7415 22.8665 30.9446C22.5341 31.1416 22.1709 31.2401 21.777 31.2401Z" fill="#F1F1F1"/>
</svg>
