<svg width="36" height="36" viewBox="0 0 36 36" fill="none" xmlns="http://www.w3.org/2000/svg">
<path d="M6.79925 24.6026L7.96354 24.9907L8.14044 24.46L7.8559 23.9783L6.79925 24.6026ZM4.53316 31.4009L5.69745 31.789L5.69746 31.7889L4.53316 31.4009ZM4.65735 31.525L4.26926 30.3607L4.26925 30.3608L4.65735 31.525ZM11.482 29.2502L12.0982 28.1888L11.6193 27.9107L11.0939 28.0859L11.482 29.2502ZM31 17.9998H29.7727C29.7727 24.5017 24.5019 29.7725 18 29.7725V30.9998V32.227C25.8575 32.227 32.2272 25.8573 32.2272 17.9998H31ZM18 4.99976V6.22703C24.5019 6.22703 29.7727 11.4979 29.7727 17.9998H31H32.2272C32.2272 10.1423 25.8575 3.77248 18 3.77248V4.99976ZM4.99996 17.9998H6.22723C6.22723 11.4979 11.4981 6.22703 18 6.22703V4.99976V3.77248C10.1425 3.77248 3.77269 10.1423 3.77269 17.9998H4.99996ZM6.79925 24.6026L7.8559 23.9783C6.82127 22.227 6.22723 20.1846 6.22723 17.9998H4.99996H3.77269C3.77269 20.6358 4.49071 23.1078 5.74259 25.2268L6.79925 24.6026ZM4.53316 31.4009L5.69746 31.7889L7.96354 24.9907L6.79925 24.6026L5.63495 24.2145L3.36887 31.0128L4.53316 31.4009ZM4.65735 31.525L4.26925 30.3608C5.15194 30.0665 5.99168 30.9063 5.69745 31.789L4.53316 31.4009L3.36887 31.0127C3.02347 32.0489 4.00926 33.0347 5.04546 32.6893L4.65735 31.525ZM11.482 29.2502L11.0939 28.0859L4.26926 30.3607L4.65735 31.525L5.04545 32.6893L11.8701 30.4145L11.482 29.2502ZM18 30.9998V29.7725C15.8469 29.7725 13.8323 29.1956 12.0982 28.1888L11.482 29.2502L10.8658 30.3115C12.9641 31.5298 15.4025 32.227 18 32.227V30.9998Z" fill="#F1F1F1"/>
<path d="M16.3219 21.2709V21.014C16.3269 20.1327 16.405 19.4302 16.5561 18.9064C16.7122 18.3826 16.9388 17.9596 17.236 17.6373C17.5331 17.315 17.8907 17.0229 18.3087 16.761C18.6209 16.5596 18.9004 16.3506 19.1472 16.134C19.394 15.9174 19.5904 15.6782 19.7364 15.4163C19.8825 15.1494 19.9555 14.8523 19.9555 14.5249C19.9555 14.1775 19.8724 13.8728 19.7062 13.6109C19.54 13.349 19.3159 13.1476 19.0339 13.0065C18.7569 12.8655 18.4497 12.795 18.1123 12.795C17.7849 12.795 17.4752 12.868 17.1831 13.0141C16.891 13.1551 16.6518 13.3666 16.4654 13.6487C16.2791 13.9256 16.1784 14.2706 16.1633 14.6836H13.0811C13.1063 13.6764 13.348 12.8454 13.8063 12.1907C14.2646 11.531 14.8715 11.0399 15.6269 10.7176C16.3823 10.3903 17.2158 10.2266 18.1274 10.2266C19.1296 10.2266 20.0159 10.3928 20.7865 10.7252C21.557 11.0525 22.1613 11.5284 22.5995 12.1529C23.0376 12.7774 23.2567 13.5303 23.2567 14.4116C23.2567 15.0009 23.1585 15.5246 22.9621 15.9829C22.7707 16.4362 22.5013 16.8391 22.1538 17.1916C21.8063 17.5391 21.3958 17.8538 20.9224 18.1359C20.5246 18.3726 20.1972 18.6193 19.9404 18.8762C19.6886 19.133 19.4997 19.4302 19.3738 19.7676C19.2529 20.105 19.19 20.5205 19.185 21.014V21.2709H16.3219ZM17.8176 26.1056C17.314 26.1056 16.8834 25.9293 16.5259 25.5768C16.1733 25.2192 15.9996 24.7912 16.0046 24.2926C15.9996 23.799 16.1733 23.376 16.5259 23.0235C16.8834 22.6709 17.314 22.4947 17.8176 22.4947C18.2961 22.4947 18.7166 22.6709 19.0792 23.0235C19.4418 23.376 19.6256 23.799 19.6307 24.2926C19.6256 24.625 19.5375 24.9296 19.3663 25.2066C19.2001 25.4786 18.981 25.6977 18.709 25.8639C18.4371 26.025 18.14 26.1056 17.8176 26.1056Z" fill="#F1F1F1"/>
</svg>
