<svg width="44" height="44" viewBox="0 0 44 44" fill="none" xmlns="http://www.w3.org/2000/svg">
<path d="M11 10C11 6.96243 13.4624 4.5 16.5 4.5H22V15.5H16.5C13.4624 15.5 11 13.0376 11 10V10Z" stroke="#F1F1F1" stroke-width="3"/>
<path d="M33 10C33 6.96243 30.5376 4.5 27.5 4.5H22V15.5H27.5C30.5376 15.5 33 13.0376 33 10V10Z" stroke="#F1F1F1" stroke-width="3"/>
<path d="M11 21C11 17.9624 13.4624 15.5 16.5 15.5H22V26.5H16.5C13.4624 26.5 11 24.0376 11 21V21Z" stroke="#F1F1F1" stroke-width="3"/>
<path d="M11 32C11 28.9624 13.4624 26.5 16.5 26.5H22V32C22 35.0376 19.5376 37.5 16.5 37.5V37.5C13.4624 37.5 11 35.0376 11 32V32Z" stroke="#F1F1F1" stroke-width="3"/>
<path d="M33 21C33 17.9624 30.5376 15.5 27.5 15.5V15.5C24.4624 15.5 22 17.9624 22 21V21C22 24.0376 24.4624 26.5 27.5 26.5V26.5C30.5376 26.5 33 24.0376 33 21V21Z" stroke="#F1F1F1" stroke-width="3"/>
</svg>
