<svg width="36" height="36" viewBox="0 0 36 36" fill="none" xmlns="http://www.w3.org/2000/svg">
<path d="M26 5V6.99902L25.7715 6.82812L25.6621 6.75293C25.4007 6.58808 25.097 6.50008 24.7861 6.5H11.2139C10.903 6.50008 10.5993 6.58808 10.3379 6.75293L10.2285 6.82812L10 6.99902V5H26Z" fill="#2E4256" stroke="#2E4256" stroke-width="2"/>
<path d="M19.1685 7.83154V25.0776H16.8315V7.83154H19.1685Z" fill="#2E4256" stroke="#2E4256" stroke-width="2.57143"/>
<rect x="6.5459" y="25.0908" width="3.27273" height="0.818182" fill="#2E4256"/>
<rect x="11.4551" y="25.0908" width="3.27273" height="0.818182" fill="#2E4256"/>
<path d="M16.3643 25.0908H19.637V25.909H16.3643V25.0908Z" fill="#2E4256"/>
<rect x="21.2729" y="25.0908" width="3.27273" height="0.818182" fill="#2E4256"/>
<rect x="26.1816" y="25.0908" width="3.27273" height="0.818182" fill="#2E4256"/>
<rect x="6.5459" y="31.0908" width="3.27273" height="0.818182" fill="#2E4256"/>
<rect x="11.4551" y="31.0908" width="3.27273" height="0.818182" fill="#2E4256"/>
<path d="M16.3643 31.0908H19.637V31.909H16.3643V31.0908Z" fill="#2E4256"/>
<rect x="21.2734" y="31.0908" width="3.27273" height="0.818182" fill="#2E4256"/>
<rect x="26.1821" y="31.0908" width="3.27273" height="0.818182" fill="#2E4256"/>
</svg>
