<svg width="38" height="26" viewBox="0 0 38 26" fill="none" xmlns="http://www.w3.org/2000/svg">
<path d="M36.6905 20.875C37.7645 21.9489 37.7645 23.6901 36.6905 24.764C35.6166 25.838 33.8754 25.838 32.8014 24.764L29.2659 21.2285C28.192 20.1546 28.192 18.4134 29.2659 17.3394C30.3398 16.2655 32.0811 16.2655 33.155 17.3394L36.6905 20.875Z" fill="url(#paint0_linear_246_267)"/>
<path d="M36.6905 1.07596C37.7645 2.14991 37.7645 3.89111 36.6905 4.96505L33.155 8.50059C32.0811 9.57453 30.3398 9.57453 29.2659 8.50059C28.192 7.42664 28.192 5.68544 29.2659 4.6115L32.8014 1.07596C33.8754 0.00202234 35.6166 0.00202246 36.6905 1.07596Z" fill="url(#paint1_linear_246_267)"/>
<path d="M26.1342 10.6735L26.2474 10.7922C27.3378 11.9993 27.3379 13.8421 26.2475 15.0491L26.1344 15.1678L16.3927 24.9094C15.1907 26.1112 13.2651 26.1485 12.0178 25.0217L11.8984 24.9093C10.6578 23.6683 10.6583 21.6565 11.899 20.4157L16.2165 16.0982L3.17729 16.0984C1.42253 16.0982 0.000106963 14.6745 3.16679e-10 12.9198C-2.45118e-05 11.1649 1.42295 9.74205 3.17776 9.74201L16.2163 9.74245L11.8985 5.42465C10.6576 4.18369 10.6575 2.17124 11.8983 0.930374C13.1392 -0.310052 15.1518 -0.310247 16.3926 0.930525L26.1342 10.6735Z" fill="url(#paint2_radial_246_267)"/>
<defs>
<linearGradient id="paint0_linear_246_267" x1="1.41106" y1="12.9202" x2="40.4153" y2="12.9202" gradientUnits="userSpaceOnUse">
<stop stop-color="#7F003D"/>
<stop offset="1" stop-color="#FF7AE2"/>
</linearGradient>
<linearGradient id="paint1_linear_246_267" x1="1.41106" y1="12.9202" x2="40.4153" y2="12.9202" gradientUnits="userSpaceOnUse">
<stop stop-color="#7F003D"/>
<stop offset="1" stop-color="#FF7AE2"/>
</linearGradient>
<radialGradient id="paint2_radial_246_267" cx="0" cy="0" r="1" gradientUnits="userSpaceOnUse" gradientTransform="translate(-8.5 13) scale(35.5 15.1754)">
<stop stop-color="white" stop-opacity="0"/>
<stop offset="0.675" stop-color="white"/>
</radialGradient>
</defs>
</svg>
